<?xml version="1.0" standalone="no"?>
<!DOCTYPE svg PUBLIC "-//W3C//DTD SVG 20010904//EN"
 "http://www.w3.org/TR/2001/REC-SVG-20010904/DTD/svg10.dtd">
<svg version="1.0" xmlns="http://www.w3.org/2000/svg"
 width="455.000000pt" height="440.000000pt" viewBox="0 0 455.000000 440.000000"
 preserveAspectRatio="xMidYMid meet">

<g transform="translate(0.000000,440.000000) scale(0.100000,-0.100000)"
fill="#00204a" stroke="#d9faff">
<path d="M2320 3853 c-8 -3 -89 -49 -180 -102 -91 -52 -259 -149 -375 -216
-115 -67 -349 -201 -520 -300 -180 -103 -325 -194 -345 -215 -20 -20 -41 -55
-48 -77 -16 -54 -17 -1619 -1 -1676 18 -67 69 -109 267 -223 380 -219 751
-434 907 -524 331 -193 304 -180 370 -180 70 0 56 -6 435 214 140 82 359 209
485 281 127 73 297 172 379 219 184 106 213 128 237 180 18 39 19 82 19 856 0
530 -4 828 -10 852 -17 59 -54 94 -179 167 -96 57 -780 453 -1181 684 -98 57
-110 61 -175 64 -38 1 -77 0 -85 -4z m157 -1265 c48 -48 73 -67 73 -55 0 9 -4
17 -9 17 -13 0 -21 27 -14 45 4 13 19 15 72 13 60 -3 66 -5 69 -26 2 -13 -3
-25 -12 -28 -12 -5 -16 -21 -16 -68 l0 -62 75 -74 c41 -41 75 -78 75 -82 0 -5
-25 -8 -55 -8 -54 0 -55 0 -55 -30 0 -23 -4 -30 -20 -30 -16 0 -20 7 -20 38 0
35 -8 46 -109 145 -85 85 -114 107 -136 107 -22 0 -51 -22 -136 -107 -101 -99
-109 -110 -109 -145 0 -31 -4 -38 -20 -38 -15 0 -20 7 -20 30 0 28 -2 29 -54
32 l-54 3 191 198 c105 108 196 197 201 197 6 0 43 -33 83 -72z m125 -694 c29
-56 56 -100 60 -98 4 3 31 50 59 104 l51 100 59 0 59 0 0 -235 0 -235 -60 0
-59 0 -3 121 -3 121 -38 -71 c-34 -63 -42 -71 -68 -71 -26 0 -33 8 -68 78
l-40 77 -1 -127 0 -128 -60 0 -60 0 0 233 0 232 60 1 60 0 52 -102z m796 49
l3 -53 -140 0 -141 0 0 -40 0 -40 120 0 120 0 0 -50 0 -50 -120 0 -120 0 0
-40 0 -40 140 0 140 0 0 -50 0 -50 -167 0 -167 0 -33 32 -33 32 0 203 0 203
198 -2 197 -3 3 -52z m-1878 -43 l0 -90 80 0 80 0 0 90 0 90 65 0 65 0 0 -230
0 -230 -65 0 -65 0 0 90 0 90 -80 0 -80 0 0 -90 0 -90 -60 0 -60 0 0 230 0
230 60 0 60 0 0 -90z m767 58 l33 -32 0 -165 0 -165 -32 -33 -32 -33 -140 0
-140 0 -33 32 -33 32 0 165 0 165 32 33 32 33 140 0 140 0 33 -32z"/>
<path d="M2032 1763 l3 -128 83 -3 82 -3 0 131 0 130 -85 0 -86 0 3 -127z"/>
</g>
</svg>
